<svg xmlns="http://www.w3.org/2000/svg" width="112" height="112" style="shape-rendering:geometricPrecision;text-rendering:geometricPrecision;image-rendering:optimizeQuality;fill-rule:evenodd;clip-rule:evenodd"><path style="opacity:1" fill="#75e4fe" d="M-.5-.5h12v4h16v4h40v4h4v4h-4v4h-4v4h-4v4h-8v-4h-4v-4h-4v-4h-4v-4h-4v12h-4v24h-4v4h-4v-8h-4v-32h-4v-4h-16v-8Z"/><path style="opacity:1" fill="#c0f4fe" d="M11.5-.5h100v24h-8v-4h-12v-4h-8v-4h-16v-4h-40v-4h-16v-4Z"/><path style="opacity:1" fill="#d8ddbb" d="M-.5 7.5h16v4h4v16h-4v-4h-4v-4h-4v4h-4v4h-4v-20Z"/><path style="opacity:1" fill="#b3570b" d="M39.5 15.5v4h-4v-8h4v4Z"/><path style="opacity:1" fill="#553421" d="M71.5 11.5h4v12h-4v-4h-4v-4h4v-4Z"/><path style="opacity:1" fill="#75e4fe" d="M75.5 11.5h8v4h8v4h12v4h8v8h-8v-4h-16v-4h-12v-12Z"/><path style="opacity:1" fill="#feb548" d="M39.5 15.5h4v4h-4v-4Z"/><path style="opacity:1" fill="#677d75" d="M19.5 27.5v12h-8v4h-4v4h-4v8h12v4h4v4h4v12h-4v16h-4v-4h-4v4h-4v-12h-4v12h-4v-64h4v-4h4v-4h4v4h4v4h4Z"/><path style="opacity:1" fill="#feb649" d="M35.5 19.5h4v4h-4v-4Z"/><path style="opacity:1" fill="#db5a48" d="M39.5 19.5h4v12h-4v-12Z"/><path style="opacity:1" fill="#5d3e2c" d="M67.5 19.5v12h8v12h-4v-4h-4v-4h-8v-4h-4v-4h4v-4h4v-4h4Z"/><path style="opacity:1" fill="#da5948" d="M67.5 19.5h4v12h-4v-12Z"/><path style="opacity:1" fill="#b3570b" d="M35.5 23.5v24h-4v-24h4Z"/><path style="opacity:1" fill="#feccc3" d="M35.5 23.5h4v8h-4v-8Z"/><path style="opacity:1" fill="#b2560b" d="M47.5 23.5h4v4h-4v-4Z"/><path style="opacity:1" fill="#fecbc3" d="M71.5 23.5h4v8h-4v-8Z"/><path style="opacity:1" fill="#4b2813" d="M75.5 23.5h4v24h-4v-24Z"/><path style="opacity:1" fill="#bff4fe" d="M79.5 23.5h8v4h16v4h8v8h-8v-4h-16v-4h-8v-8Z"/><path style="opacity:1" fill="#b2560b" d="M51.5 27.5h4v4h-4v-4Z"/><path style="opacity:1" fill="#f6a339" d="M43.5 19.5h4v8h4v8h-8v4h-4v4h-4v-12h8v-12Z"/><path style="opacity:1" fill="#d9be7c" d="M51.5 31.5h8v4h-8v-4Z"/><path style="opacity:1" fill="#75e4fe" d="M79.5 31.5h8v4h16v4h8v52h-4v-12h-4v-4h-4v-4h-4v-4h-8v-4h4v-4h16v-8h-4v-4h-4v-4h-8v4h-4v4h-4v-4h-4v-16Z"/><path style="opacity:1" fill="#dabe7d" d="M51.5 35.5v4h-8v-4h8Z"/><path style="opacity:1" fill="#fdfccb" d="M51.5 35.5h8v4h4v8h4v4h-24v-4h4v-8h4v-4Z"/><path style="opacity:1" fill="#dabe7d" d="M59.5 35.5h8v4h-8v-4Z"/><path style="opacity:1" fill="#9b6a35" d="M19.5 39.5v4h-8v-4h8Z"/><path style="opacity:1" fill="#0e0d0a" d="M43.5 39.5h4v8h-4v-8Zm20 0h4v8h-4v-8Z"/><path style="opacity:1" fill="#825524" d="M11.5 43.5v4h-4v-4h4Z"/><path style="opacity:1" fill="#fdfccc" d="M11.5 43.5h8v4h-8v-4Z"/><path style="opacity:1" fill="#a8743d" d="M19.5 43.5h4v8h-4v-8Z"/><path style="opacity:1" fill="#f7f1be" d="M67.5 39.5h4v4h4v4h4v4h-8v-4h-4v-8Z"/><path style="opacity:1" fill="#8f602d" d="M99.5 47.5h-8v-4h8v4Z"/><path style="opacity:1" fill="#dabe7d" d="M7.5 47.5h12v4h-12v-4Z"/><path style="opacity:1" fill="#a7753c" d="M31.5 47.5v4h-4v-4h4Z"/><path style="opacity:1" fill="#fecbc3" d="M43.5 47.5v4h-4v-4h4Zm24 0h4v4h-4v-4Z"/><path style="opacity:1" fill="#a7753c" d="M79.5 47.5h4v4h-4v-4Z"/><path style="opacity:1" fill="#fdfccc" d="M91.5 47.5h8v4h-8v-4Z"/><path style="opacity:1" fill="#825524" d="M99.5 47.5h4v4h-4v-4Z"/><path style="opacity:1" fill="#946430" d="M7.5 47.5v4h12v4h-16v-8h4Z"/><path style="opacity:1" fill="#4b8afc" d="M19.5 51.5h4v4h-4v-4Z"/><path style="opacity:1" fill="#113881" d="M23.5 51.5h4v12h4v4h4v4h-8v-4h-4v-4h-4v-4h-4v-4h8v-4Z"/><path style="opacity:1" fill="#75e5fd" d="M27.5 51.5h4v4h-4v-4Z"/><path style="opacity:1" fill="#a7753c" d="M31.5 51.5h4v4h-4v-4Z"/><path style="opacity:1" fill="#eee0a8" d="M43.5 39.5v8h-4v4h4v8h-4v-4h-4v-4h-4v-4h4v-4h4v-4h4Z"/><path style="opacity:1" fill="#a44032" d="M43.5 51.5h24v8h-4v-4h-16v4h-4v-8Z"/><path style="opacity:1" fill="#e3cd90" d="M67.5 51.5h8v4h-4v4h-4v-8Z"/><path style="opacity:1" fill="#a7753c" d="M75.5 51.5h4v4h-4v-4Z"/><path style="opacity:1" fill="#75e5fd" d="M79.5 51.5h4v4h-4v-4Z"/><path style="opacity:1" fill="#15439c" d="M83.5 51.5h4v4h-4v-4Z"/><path style="opacity:1" fill="#a8743d" d="M91.5 47.5v8h-4v-8h4Z"/><path style="opacity:1" fill="#dabe7d" d="M91.5 51.5h12v4h-12v-4Z"/><path style="opacity:1" fill="#a7753d" d="M35.5 55.5h4v4h-4v-4Z"/><path style="opacity:1" fill="#da5948" d="M63.5 59.5v4h-16v-8h16v4Z"/><path style="opacity:1" fill="#a7743c" d="M75.5 55.5v4h-4v-4h4Z"/><path style="opacity:1" fill="#75e5fd" d="M75.5 55.5h4v4h-4v-4Z"/><path style="opacity:1" fill="#946430" d="M103.5 51.5h4v8h-16v-4h12v-4Z"/><path style="opacity:1" fill="#3973dd" d="M27.5 55.5h4v8h-4v-8Z"/><path style="opacity:1" fill="#9e2d1c" d="M31.5 55.5h4v4h8v4h4v4h-4v4h4v4h-8v-4h-4v-4h-4v-12Z"/><path style="opacity:1" fill="#dabf7d" d="M43.5 59.5h4v4h-4v-4Z"/><path style="opacity:1" fill="#d9be7c" d="M63.5 59.5h4v4h-4v-4Z"/><path style="opacity:1" fill="#892516" d="M67.5 59.5h8v8h-4v-4h-4v-4Z"/><path style="opacity:1" fill="#4b8afc" d="M75.5 59.5h4v8h-4v-8Z"/><path style="opacity:1" fill="#2657b7" d="M79.5 55.5h12v4h-4v4h-4v4h-4v-12Z"/><path style="opacity:1" fill="#0c2558" d="M91.5 59.5v4h-4v-4h4Z"/><path style="opacity:1" fill="#dabe7d" d="M47.5 63.5h16v4h-16v-4Z"/><path style="opacity:1" fill="#0d2659" d="M87.5 63.5v4h-4v-4h4Z"/><path style="opacity:1" fill="#75e5fd" d="M23.5 67.5h4v4h-4v-4Z"/><path style="opacity:1" fill="#c23a28" d="M63.5 63.5h8v8h-12v4h-12v-4h-4v-4h20v-4Z"/><path style="opacity:1" fill="#4a89fc" d="M71.5 67.5h4v4h-4v-4Z"/><path style="opacity:1" fill="#75e5fd" d="M83.5 67.5h4v4h-4v-4Z"/><path style="opacity:1" fill="#892616" d="M67.5 71.5v4h-8v-4h8Z"/><path style="opacity:1" fill="#4a89fc" d="M67.5 71.5h4v4h-4v-4Z"/><path style="opacity:1" fill="#75e5fd" d="M83.5 71.5v4h4v4h4v4h4v8h-4v-4h-4v4h-4v-4h-8v-12h4v-4h4Z"/><path style="opacity:1" fill="#892516" d="M47.5 75.5h12v4h-12v-4Z"/><path style="opacity:1" fill="#573522" d="M87.5 67.5h8v4h4v4h4v4h-4v4h-8v-4h-4v-4h-4v-4h4v-4Z"/><path style="opacity:1" fill="#952919" d="M23.5 71.5h8v4h4v4h-8v4h-4v8h-4v-16h4v-4Z"/><path style="opacity:1" fill="#667d74" d="M31.5 79.5v4h4v4h-4v4h-8v-8h4v-4h4Z"/><path style="opacity:1" fill="#75e5fd" d="M31.5 79.5h4v4h-4v-4Z"/><path style="opacity:1" fill="#0d2a60" d="M31.5 71.5h8v4h4v8h-4v4h-4v-12h-4v-4Z"/><path style="opacity:1" fill="#4a89fc" d="M43.5 75.5h4v4h4v4h-8v-8Z"/><path style="opacity:1" fill="#15449b" d="M51.5 79.5h8v4h-8v-4Z"/><path style="opacity:1" fill="#4582f2" d="M59.5 75.5h8v8h-8v-8Z"/><path style="opacity:1" fill="#0d2a62" d="M75.5 67.5h8v4h-4v4h-4v20h-4v-12h-4v-8h4v-4h4v-4Z"/><path style="opacity:1" fill="#bb5e0d" d="M103.5 79.5h4v16h-4v-12h-4v-4h4Z"/><path style="opacity:1" fill="#0b2758" d="M43.5 83.5h24v4h-24v-4Z"/><path style="opacity:1" fill="#259d7c" d="M19.5 91.5h4v4h4v-4h4v8h-20v8h-4v-4h-4v-4h-4v-8h4v-12h4v12h4v-4h4v4h4Z"/><path style="opacity:1" fill="#0b2658" d="M35.5 87.5v12h-4v-12h4Z"/><path style="opacity:1" fill="#3c77e3" d="M43.5 83.5v4h4v4h-8v4h-4v-8h4v-4h4Z"/><path style="opacity:1" fill="#18459b" d="M47.5 87.5h12v4h8v12h-12v-8h-8v4h-8v8h-4v-4h-4v-4h4v-4h4v-4h8v-4Z"/><path style="opacity:1" fill="#437fee" d="M67.5 83.5h4v12h-4v-4h-8v-4h8v-4Z"/><path style="opacity:1" fill="#a7753c" d="M75.5 87.5h4v4h-4v-4Z"/><path style="opacity:1" fill="#32a577" d="M79.5 87.5h4v4h-4v-4Zm12 4v4h-8v-4h4v-4h4v4Z"/><path style="opacity:1" fill="#d47213" d="M95.5 83.5h4v8h-4v-8Z"/><path style="opacity:1" fill="#ffb549" d="M99.5 83.5h4v12h-8v-4h4v-8Z"/><path style="opacity:1" fill="#882515" d="M23.5 91.5h4v4h-4v-4Z"/><path style="opacity:1" fill="#a7743c" d="M79.5 91.5h4v4h-4v-4Z"/><path style="opacity:1" fill="#b2570b" d="M91.5 91.5h4v4h-4v-4Z"/><path style="opacity:1" fill="#0c2558" d="M55.5 99.5h-8v-4h8v4Z"/><path style="opacity:1" fill="#a7753d" d="M71.5 95.5h4v4h-4v-4Z"/><path style="opacity:1" fill="#ecdca3" d="M75.5 91.5h4v4h4v4h4v4h-8v-4h-4v-8Z"/><path style="opacity:1" fill="#ce741d" d="M83.5 95.5h20v4h-4v4h-4v4h-8v-8h-4v-4Z"/><path style="opacity:1" fill="#75e5fd" d="M103.5 95.5h4v4h-4v-4Z"/><path style="opacity:1" fill="#58b872" d="M27.5 99.5v4h-4v4h-4v4h-8v-12h16Z"/><path style="opacity:1" fill="#0c2659" d="M27.5 99.5h4v4h-4v-4Z"/><path style="opacity:1" fill="#0b2758" d="M47.5 99.5v4h-8v-4h8Z"/><path style="opacity:1" fill="#32a576" d="M71.5 99.5h4v4h-4v-4Z"/><path style="opacity:1" fill="#a7743c" d="M75.5 99.5h4v4h-4v-4Z"/><path style="opacity:1" fill="#38a777" d="M107.5 91.5h4v12h-4v4h-4v-8h4v-8Z"/><path style="opacity:1" fill="#5aba71" d="M-.5 99.5h4v12h-4v-12Z"/><path style="opacity:1" fill="#7cd169" d="M3.5 103.5h4v4h4v4h-8v-8Z"/><path style="opacity:1" fill="#a7753d" d="M27.5 103.5v4h-4v-4h4Z"/><path style="opacity:1" fill="#e6d297" d="M27.5 103.5h8v8h-12v-4h4v-4Z"/><path style="opacity:1" fill="#54b573" d="M47.5 99.5h8v4h4v4h-4v4h-16v-8h8v-4Z"/><path style="opacity:1" fill="#a8753d" d="M59.5 103.5h4v8h-4v-8Z"/><path style="opacity:1" fill="#e1ca8c" d="M63.5 103.5h4v4h8v4h-12v-8Z"/><path style="opacity:1" fill="#0c2658" d="M67.5 95.5h4v8h4v4h-8v-12Z"/><path style="opacity:1" fill="#32a576" d="M75.5 103.5h4v4h-4v-4Z"/><path style="opacity:1" fill="#a7753d" d="M79.5 103.5h8v4h-8v-4Z"/><path style="opacity:1" fill="#667d74" d="M99.5 103.5v4h-4v-4h4Z"/><path style="opacity:1" fill="#a7753c" d="M23.5 107.5v4h-4v-4h4Zm12 0h4v4h-4v-4Z"/><path style="opacity:1" fill="#a0a96e" d="M59.5 107.5v4h-4v-4h4Z"/><path style="opacity:1" fill="#a7753c" d="M75.5 107.5h4v4h-4v-4Z"/><path style="opacity:1" fill="#5fbd70" d="M103.5 99.5v8h4v-4h4v8h-32v-4h20v-8h4Z"/></svg>